{
  "accessors": [
    {
      "bufferView": 2,
      "componentType": 5126,
      "count": 1617,
      "max": [
        2.1140029430389404,
        1.8728430271148682,
        3.9077370166778564
      ],
      "min": [
        -1.9352140426635742,
        -0.2333810031414032,
        0.5273420214653015
      ],
      "type": "VEC3"
    },
    {
      "bufferView": 2,
      "byteOffset": 19404,
      "componentType": 5126,
      "count": 1617,
      "max": [
        0.9995828866958618,
        0.9998947381973267,
        0.9977223873138428
      ],
      "min": [
        -0.999568521976471,
        -0.9998947381973267,
        -0.9990829825401306
      ],
      "type": "VEC3"
    },
    {
      "bufferView": 3,
      "componentType": 5126,
      "count": 1617,
      "max": [
        0.99785977602005,
        0.9999431371688843,
        0.9834664463996887,
        1.0
      ],
      "min": [
        -0.9967726469039917,
        -0.99986732006073,
        -0.9865757822990417,
        1.0
      ],
      "type": "VEC4"
    },
    {
      "bufferView": 1,
      "componentType": 5126,
      "count": 1617,
      "max": [
        0.997393012046814,
        0.9975029826164246
      ],
      "min": [
        0.002495999913662672,
        0.002483000047504902
      ],
      "type": "VEC2"
    },
    {
      "bufferView": 0,
      "componentType": 5125,
      "count": 3960,
      "type": "SCALAR"
    }
  ],
  "asset": {
    "extras": {
      "author": "Rurre (https://sketchfab.com/rurre)",
      "license": "CC-BY-4.0 (http://creativecommons.org/licenses/by/4.0/)",
      "source": "https://sketchfab.com/3d-models/scrap-metal-1e57de80d46442a38c8c5b2fb06888f4",
      "title": "Scrap Metal"
    },
    "generator": "Sketchfab-12.66.0",
    "version": "2.0"
  },
  "bufferViews": [
    {
      "buffer": 0,
      "byteLength": 15840,
      "name": "floatBufferViews",
      "target": 34963
    },
    {
      "buffer": 0,
      "byteLength": 12936,
      "byteOffset": 15840,
      "byteStride": 8,
      "name": "floatBufferViews",
      "target": 34962
    },
    {
      "buffer": 0,
      "byteLength": 38808,
      "byteOffset": 28776,
      "byteStride": 12,
      "name": "floatBufferViews",
      "target": 34962
    },
    {
      "buffer": 0,
      "byteLength": 25872,
      "byteOffset": 67584,
      "byteStride": 16,
      "name": "floatBufferViews",
      "target": 34962
    }
  ],
  "buffers": [
    {
      "byteLength": 93456,
      "uri": "scene.bin"
    }
  ],
  "images": [
    {
      "uri": "textures/scrap_baseColor.jpeg"
    },
    {
      "uri": "textures/scrap_metallicRoughness.png"
    },
    {
      "uri": "textures/scrap_normal.png"
    }
  ],
  "materials": [
    {
      "doubleSided": true,
      "name": "scrap",
      "normalTexture": {
        "index": 2
      },
      "occlusionTexture": {
        "index": 1
      },
      "pbrMetallicRoughness": {
        "baseColorTexture": {
          "index": 0
        },
        "metallicRoughnessTexture": {
          "index": 1
        }
      }
    }
  ],
  "meshes": [
    {
      "name": "defaultMaterial",
      "primitives": [
        {
          "attributes": {
            "NORMAL": 1,
            "POSITION": 0,
            "TANGENT": 2,
            "TEXCOORD_0": 3
          },
          "indices": 4,
          "material": 0,
          "mode": 4
        }
      ]
    }
  ],
  "nodes": [
    {
      "children": [
        1
      ],
      "matrix": [
        1.0,
        0.0,
        0.0,
        0.0,
        0.0,
        2.220446049250313e-16,
        -1.0,
        0.0,
        0.0,
        1.0,
        2.220446049250313e-16,
        0.0,
        0.0,
        0.0,
        0.0,
        1.0
      ],
      "name": "Sketchfab_model"
    },
    {
      "children": [
        2
      ],
      "matrix": [
        1.0,
        0.0,
        0.0,
        0.0,
        0.0,
        -4.371139006309477e-08,
        0.999999999999999,
        0.0,
        0.0,
        -0.999999999999999,
        -4.371139006309477e-08,
        0.0,
        0.0,
        0.0,
        0.0,
        1.0
      ],
      "name": "Collada visual scene group"
    },
    {
      "children": [
        3
      ],
      "name": "scrap_high"
    },
    {
      "mesh": 0,
      "name": "defaultMaterial"
    }
  ],
  "samplers": [
    {
      "magFilter": 9729,
      "minFilter": 9987,
      "wrapS": 10497,
      "wrapT": 10497
    }
  ],
  "scene": 0,
  "scenes": [
    {
      "name": "Sketchfab_Scene",
      "nodes": [
        0
      ]
    }
  ],
  "textures": [
    {
      "sampler": 0,
      "source": 0
    },
    {
      "sampler": 0,
      "source": 1
    },
    {
      "sampler": 0,
      "source": 2
    }
  ]
}
